<svg aria-hidden="true" style="position: absolute; width: 0; height: 0; overflow: hidden;" version="1.1" xmlns="http://www.w3.org/2000/svg" xmlns:xlink="http://www.w3.org/1999/xlink">
<defs>
<symbol id="facebook" viewBox="0 0 32 32">
<path d="M16 0c-8.822 0-16 7.178-16 16s7.178 16 16 16 16-7.178 16-16-7.178-16-16-16zM16 30.169c-7.813 0-14.169-6.356-14.169-14.169s6.356-14.169 14.169-14.169 14.169 6.356 14.169 14.169-6.356 14.169-14.169 14.169z"></path>
<path d="M19.706 7.317h-2.17c-1.776 0-3.221 1.445-3.221 3.221v2.441h-2.021c-0.506 0-0.915 0.41-0.915 0.915s0.41 0.915 0.915 0.915h2.021v8.475c0 0.506 0.41 0.915 0.915 0.915s0.915-0.41 0.915-0.915v-8.475h3.127c0.506 0 0.915-0.41 0.915-0.915s-0.41-0.915-0.915-0.915h-3.127v-2.441c0-0.766 0.624-1.39 1.39-1.39h2.17c0.506 0 0.915-0.41 0.915-0.915s-0.41-0.915-0.915-0.915z"></path>
</symbol>
<symbol id="instagram" viewBox="0 0 32 32">
<path d="M16 0c-8.822 0-16 7.178-16 16s7.178 16 16 16 16-7.178 16-16-7.178-16-16-16zM16 30.169c-7.813 0-14.169-6.356-14.169-14.169s6.356-14.169 14.169-14.169 14.169 6.356 14.169 14.169-6.356 14.169-14.169 14.169z"></path>
<path d="M21.827 8.169h-11.653c-1.066 0-1.932 0.867-1.932 1.932v11.797c0 1.066 0.867 1.932 1.932 1.932h11.653c1.066 0 1.932-0.867 1.932-1.932v-11.797c0-1.065-0.867-1.932-1.932-1.932zM21.928 21.899c0 0.056-0.046 0.102-0.102 0.102h-11.653c-0.056 0-0.102-0.046-0.102-0.102v-11.797c0-0.056 0.046-0.102 0.102-0.102h11.653c0.056 0 0.102 0.046 0.102 0.102v11.797z"></path>
<path d="M18.67 11.371h2.097v1.923h-2.097v-1.923z"></path>
<path d="M18.067 16.775c0 1.142-0.925 2.067-2.067 2.067s-2.067-0.925-2.067-2.067c0-1.142 0.925-2.067 2.067-2.067s2.067 0.925 2.067 2.067z"></path>
<path d="M19.297 16.766c0 1.821-1.476 3.297-3.297 3.297s-3.297-1.476-3.297-3.297l0.004-1.469h-1.474v5.467h9.534v-5.467h-1.462l-0.008 1.469z"></path>
</symbol>
<symbol id="twitter" viewBox="0 0 32 32">
<path d="M16 0c-8.822 0-16 7.178-16 16s7.178 16 16 16 16-7.178 16-16-7.178-16-16-16zM16 30.169c-7.813 0-14.169-6.356-14.169-14.169s6.356-14.169 14.169-14.169 14.169 6.356 14.169 14.169-6.356 14.169-14.169 14.169z"></path>
<path d="M19.153 13.506c0.506 0 0.915-0.41 0.915-0.915s-0.41-0.915-0.915-0.915h-5.39v-0.93c0-0.506-0.41-0.915-0.915-0.915s-0.915 0.41-0.915 0.915v6.046c0 2.966 2.413 5.378 5.378 5.378h1.842c0.506 0 0.915-0.41 0.915-0.915s-0.41-0.915-0.915-0.915h-1.842c-1.956 0-3.548-1.591-3.548-3.548v-3.285h5.39z"></path>
</symbol>
<symbol id="mail" viewBox="0 0 32 32">
<path d="M29 4h-26c-1.65 0-3 1.35-3 3v20c0 1.65 1.35 3 3 3h26c1.65 0 3-1.35 3-3v-20c0-1.65-1.35-3-3-3zM12.461 17.199l-8.461 6.59v-15.676l8.461 9.086zM5.512 8h20.976l-10.488 7.875-10.488-7.875zM12.79 17.553l3.21 3.447 3.21-3.447 6.58 8.447h-19.579l6.58-8.447zM19.539 17.199l8.461-9.086v15.676l-8.461-6.59z"></path>
</symbol>
<symbol id="phone" viewBox="0 0 32 32">
<path d="M23 0h-14c-1.65 0-3 1.35-3 3v26c0 1.65 1.35 3 3 3h14c1.65 0 3-1.35 3-3v-26c0-1.65-1.35-3-3-3zM12 1.5h8v1h-8v-1zM16 30c-1.105 0-2-0.895-2-2s0.895-2 2-2 2 0.895 2 2-0.895 2-2 2zM24 24h-16v-20h16v20z"></path>
</symbol>
</defs>
</svg>
